<svg xmlns="http://www.w3.org/2000/svg" viewBox="0 0 280 72" fill="none">
  <!-- Book icon -->
  <g transform="translate(2, 2)">
    <path d="M34 8 C28 10 20 13 14 17 L14 54 C20 51 28 49 34 50 Z" fill="rgba(255,255,255,0.12)" stroke="white" stroke-width="1.8" stroke-linejoin="round"/>
    <path d="M34 8 C30 10 24 12 20 15 L20 51 C24 49 30 48 34 50 Z" fill="rgba(255,255,255,0.06)" stroke="rgba(255,255,255,0.5)" stroke-width="1.2" stroke-linejoin="round"/>
    <path d="M34 8 C40 10 48 13 54 17 L54 54 C48 51 40 49 34 50 Z" fill="rgba(255,255,255,0.12)" stroke="white" stroke-width="1.8" stroke-linejoin="round"/>
    <path d="M34 8 C38 10 44 12 48 15 L48 51 C44 49 38 48 34 50 Z" fill="rgba(255,255,255,0.06)" stroke="rgba(255,255,255,0.5)" stroke-width="1.2" stroke-linejoin="round"/>
    <line x1="34" y1="8" x2="34" y2="50" stroke="white" stroke-width="1.8"/>
    <path d="M14 54 Q24 60 34 58 Q44 60 54 54" stroke="white" stroke-width="2.5" fill="none" stroke-linecap="round"/>
    <rect x="19" y="20" width="3" height="18" fill="white" opacity="0.55" rx="1"/>
    <rect x="24" y="15" width="3" height="23" fill="white" opacity="0.55" rx="1"/>
    <rect x="29" y="18" width="3" height="20" fill="white" opacity="0.55" rx="1"/>
    <rect x="36" y="18" width="3" height="20" fill="white" opacity="0.55" rx="1"/>
    <rect x="41" y="15" width="3" height="23" fill="white" opacity="0.55" rx="1"/>
    <rect x="46" y="20" width="3" height="18" fill="white" opacity="0.55" rx="1"/>
    <path d="M31.5 28 L31.5 40 M36.5 28 L36.5 40 M31.5 34 L36.5 34" stroke="white" stroke-width="2.2" stroke-linecap="round"/>
  </g>
  <text x="75" y="36" font-family="'Playfair Display', Georgia, serif" font-size="20" font-weight="700" fill="white" letter-spacing="-0.4">HONDULETRAS</text>
  <text x="75" y="54" font-family="'Plus Jakarta Sans', system-ui, sans-serif" font-size="11.5" font-weight="500" fill="rgba(255,255,255,0.6)" letter-spacing="2">LIBRERÍA HN</text>
</svg>
